<?xml version="1.0" standalone="no"?>
<svg viewBox="0 0 200 200" xmlns="http://www.w3.org/2000/svg">
  <path fill="#00ADE1" d="M40.8,-71.7C51.1,-64.7,56.5,-50.2,60.1,-37C63.6,-23.8,65.4,-11.9,69.1,2.1C72.8,16.2,78.5,32.4,74.2,44.3C69.9,56.2,55.5,63.8,41.5,71.4C27.5,79,13.7,86.6,0.1,86.4C-13.6,86.3,-27.1,78.4,-40.4,70.3C-53.6,62.3,-66.6,54.1,-69,42.4C-71.3,30.6,-63.1,15.3,-58.3,2.7C-53.6,-9.8,-52.4,-19.7,-49.4,-30.3C-46.3,-40.9,-41.5,-52.2,-33,-60.3C-24.5,-68.3,-12.2,-73.1,1.5,-75.7C15.2,-78.3,30.5,-78.7,40.8,-71.7Z" transform="translate(100 100)" />
</svg>
